<?xml version="1.0" standalone="no"?><!DOCTYPE svg PUBLIC "-//W3C//DTD SVG 1.1//EN" "http://www.w3.org/Graphics/SVG/1.1/DTD/svg11.dtd"><svg t="1673264077715" class="icon" viewBox="0 0 1024 1024" version="1.1" xmlns="http://www.w3.org/2000/svg" p-id="12100" xmlns:xlink="http://www.w3.org/1999/xlink" width="200" height="200"><path d="M416.029 864h-293.42C102.392 864 86 847.59 86 827.346c0-7.22 2.13-14.28 6.123-20.294l102.498-154.35a36.686 36.686 0 0 0 6.124-20.293V377.74c0-143.536 113.662-260.493 255.787-265.57C460.336 84.95 483.692 64 511.935 64c28.24 0 51.592 20.943 55.402 48.158 142.081 4.868 255.77 121.722 255.77 265.161v254.282a36.686 36.686 0 0 0 6.088 20.24l102.713 155.265c11.165 16.877 6.55 39.62-10.306 50.799A36.578 36.578 0 0 1 901.386 864H607.842v0.093c0 52.968-42.939 95.907-95.907 95.907-52.967 0-95.906-42.939-95.906-95.907V864z m353.117-172.434a108.686 108.686 0 0 1-18.039-59.965V377.319C751.107 270.533 664.68 184 558.11 184h-91.945c-106.803 0-193.42 86.721-193.42 193.74V632.41c0 21.39-6.31 42.305-18.143 60.124L188.548 792h647.038l-66.44-100.434z" p-id="12101"></path></svg>